<svg width="96" height="19" viewBox="0 0 96 19" fill="none" xmlns="http://www.w3.org/2000/svg">
<path d="M19.693 1.152V18H15.589V7.896L11.821 18H8.509L4.717 7.872V18H0.613V1.152H5.461L10.189 12.816L14.869 1.152H19.693ZM37.0923 1.152L31.2603 12.432V18H27.1562V12.432L21.3243 1.152H25.9803L29.2443 8.208L32.4843 1.152H37.0923ZM70.453 6.576C70.453 7.552 70.229 8.448 69.781 9.264C69.333 10.064 68.645 10.712 67.717 11.208C66.789 11.704 65.637 11.952 64.261 11.952H61.717V18H57.613V1.152H64.261C65.605 1.152 66.741 1.384 67.669 1.848C68.597 2.312 69.293 2.952 69.757 3.768C70.221 4.584 70.453 5.52 70.453 6.576ZM63.949 8.688C64.733 8.688 65.317 8.504 65.701 8.136C66.085 7.768 66.277 7.248 66.277 6.576C66.277 5.904 66.085 5.384 65.701 5.016C65.317 4.648 64.733 4.464 63.949 4.464H61.717V8.688H63.949ZM76.6936 1.152V18H72.5896V1.152H76.6936ZM90.1557 15.024H83.8677L82.8597 18H78.5637L84.6597 1.152H89.4117L95.5077 18H91.1637L90.1557 15.024ZM89.0997 11.856L87.0117 5.688L84.9477 11.856H89.0997Z" fill="#EDF1F6"/>
<path d="M46.7138 18.168C45.1298 18.168 43.6738 17.8 42.3458 17.064C41.0338 16.328 39.9858 15.304 39.2018 13.992C38.4338 12.664 38.0498 11.176 38.0498 9.528C38.0498 7.88 38.4338 6.4 39.2018 5.088C39.9858 3.776 41.0338 2.752 42.3458 2.016C43.6738 1.28 45.1298 0.912 46.7138 0.912C48.2978 0.912 49.7458 1.28 51.0578 2.016C52.3858 2.752 53.4258 3.776 54.1778 5.088C54.9458 6.4 55.3298 7.88 55.3298 9.528C55.3298 11.176 54.9458 12.664 54.1778 13.992C53.4098 15.304 52.3698 16.328 51.0578 17.064C49.7458 17.8 48.2978 18.168 46.7138 18.168ZM46.7138 14.424C48.0578 14.424 49.1298 13.976 49.9298 13.08C50.7458 12.184 51.1538 11 51.1538 9.528C51.1538 8.04 50.7458 6.856 49.9298 5.976C49.1298 5.08 48.0578 4.632 46.7138 4.632C45.3538 4.632 44.2658 5.072 43.4498 5.952C42.6498 6.832 42.2498 8.024 42.2498 9.528C42.2498 11.016 42.6498 12.208 43.4498 13.104C44.2658 13.984 45.3538 14.424 46.7138 14.424Z" fill="#2D3663"/>
<path d="M19.693 1.152H20.193V0.651999H19.693V1.152ZM19.693 18V18.5H20.193V18H19.693ZM15.589 18H15.089V18.5H15.589V18ZM15.589 7.896H16.089L15.1205 7.72129L15.589 7.896ZM11.821 18V18.5H12.1682L12.2895 18.1747L11.821 18ZM8.509 18L8.04075 18.1753L8.16231 18.5H8.509V18ZM4.717 7.872L5.18526 7.69668L4.217 7.872H4.717ZM4.717 18V18.5H5.217V18H4.717ZM0.613 18H0.113V18.5H0.613V18ZM0.613 1.152V0.651999H0.113V1.152H0.613ZM5.461 1.152L5.92438 0.964169L5.79784 0.651999H5.461V1.152ZM10.189 12.816L9.72562 13.0038L10.1914 14.1528L10.653 13.0022L10.189 12.816ZM14.869 1.152V0.651999H14.5309L14.405 0.96581L14.869 1.152ZM19.193 1.152V18H20.193V1.152H19.193ZM19.693 17.5H15.589V18.5H19.693V17.5ZM16.089 18V7.896H15.089V18H16.089ZM15.1205 7.72129L11.3525 17.8253L12.2895 18.1747L16.0575 8.07071L15.1205 7.72129ZM11.821 17.5H8.509V18.5H11.821V17.5ZM8.97726 17.8247L5.18526 7.69668L4.24874 8.04732L8.04075 18.1753L8.97726 17.8247ZM4.217 7.872V18H5.217V7.872H4.217ZM4.717 17.5H0.613V18.5H4.717V17.5ZM1.113 18V1.152H0.113V18H1.113ZM0.613 1.652H5.461V0.651999H0.613V1.652ZM4.99762 1.33983L9.72562 13.0038L10.6524 12.6282L5.92438 0.964169L4.99762 1.33983ZM10.653 13.0022L15.333 1.33819L14.405 0.96581L9.72496 12.6298L10.653 13.0022ZM14.869 1.652H19.693V0.651999H14.869V1.652ZM37.0923 1.152L37.5364 1.38163L37.9136 0.651999H37.0923V1.152ZM31.2603 12.432L30.8161 12.2024L30.7603 12.3104V12.432H31.2603ZM31.2603 18V18.5H31.7603V18H31.2603ZM27.1562 18H26.6562V18.5H27.1562V18ZM27.1562 12.432H27.6562V12.3104L27.6004 12.2024L27.1562 12.432ZM21.3243 1.152V0.651999H20.5029L20.8801 1.38163L21.3243 1.152ZM25.9803 1.152L26.434 0.942079L26.2999 0.651999H25.9803V1.152ZM29.2443 8.208L28.7905 8.41792L29.2459 9.40255L29.6986 8.41665L29.2443 8.208ZM32.4843 1.152V0.651999H32.1636L32.0299 0.943353L32.4843 1.152ZM36.6481 0.922365L30.8161 12.2024L31.7044 12.6616L37.5364 1.38163L36.6481 0.922365ZM30.7603 12.432V18H31.7603V12.432H30.7603ZM31.2603 17.5H27.1562V18.5H31.2603V17.5ZM27.6562 18V12.432H26.6562V18H27.6562ZM27.6004 12.2024L21.7684 0.922365L20.8801 1.38163L26.7121 12.6616L27.6004 12.2024ZM21.3243 1.652H25.9803V0.651999H21.3243V1.652ZM25.5265 1.36192L28.7905 8.41792L29.698 7.99808L26.434 0.942079L25.5265 1.36192ZM29.6986 8.41665L32.9386 1.36065L32.0299 0.943353L28.7899 7.99935L29.6986 8.41665ZM32.4843 1.652H37.0923V0.651999H32.4843V1.652ZM42.3458 17.064L42.1012 17.5001L42.1034 17.5013L42.3458 17.064ZM39.2018 13.992L38.7689 14.2423L38.7726 14.2485L39.2018 13.992ZM39.2018 5.088L38.7726 4.83151L38.7703 4.83541L39.2018 5.088ZM42.3458 2.016L42.1034 1.57867L42.1012 1.57993L42.3458 2.016ZM51.0578 2.016L50.8132 2.45208L50.8154 2.45333L51.0578 2.016ZM54.1778 5.088L53.744 5.33665L53.7463 5.34059L54.1778 5.088ZM54.1778 13.992L54.6093 14.2446L54.6106 14.2423L54.1778 13.992ZM51.0578 17.064L51.3024 17.5001L51.3024 17.5001L51.0578 17.064ZM49.9298 13.08L49.5601 12.7433L49.5568 12.747L49.9298 13.08ZM49.9298 5.976L49.5568 6.30907L49.5632 6.31597L49.9298 5.976ZM43.4498 5.952L43.0832 5.61201L43.0798 5.61566L43.4498 5.952ZM43.4498 13.104L43.0768 13.4371L43.0832 13.444L43.4498 13.104ZM46.7138 17.668C45.2108 17.668 43.8388 17.3198 42.5882 16.6267L42.1034 17.5013C43.5089 18.2802 45.0488 18.668 46.7138 18.668V17.668ZM42.5904 16.6279C41.3559 15.9354 40.371 14.9738 39.631 13.7355L38.7726 14.2485C39.6006 15.6342 40.7118 16.7206 42.1012 17.5001L42.5904 16.6279ZM39.6346 13.7417C38.9139 12.4954 38.5498 11.0949 38.5498 9.528H37.5498C37.5498 11.2571 37.9537 12.8326 38.769 14.2423L39.6346 13.7417ZM38.5498 9.528C38.5498 7.96108 38.9139 6.56958 39.6333 5.34059L38.7703 4.83541C37.9537 6.23042 37.5498 7.79892 37.5498 9.528H38.5498ZM39.631 5.34448C40.371 4.10618 41.3559 3.14464 42.5904 2.45207L42.1012 1.57993C40.7118 2.35936 39.6006 3.44582 38.7726 4.83152L39.631 5.34448ZM42.5882 2.45333C43.8388 1.76024 45.2108 1.412 46.7138 1.412V0.412C45.0488 0.412 43.5089 0.799759 42.1034 1.57867L42.5882 2.45333ZM46.7138 1.412C48.2168 1.412 49.5799 1.76023 50.8132 2.45207L51.3024 1.57993C49.9117 0.79977 48.3788 0.412 46.7138 0.412V1.412ZM50.8154 2.45333C52.0639 3.14527 53.0376 4.10416 53.744 5.33664L54.6116 4.83936C53.814 3.44784 52.7077 2.35873 51.3002 1.57867L50.8154 2.45333ZM53.7463 5.34059C54.4657 6.56958 54.8298 7.96108 54.8298 9.528H55.8298C55.8298 7.79892 55.4259 6.23042 54.6093 4.83541L53.7463 5.34059ZM54.8298 9.528C54.8298 11.0949 54.4657 12.4954 53.745 13.7417L54.6106 14.2423C55.4259 12.8326 55.8298 11.2571 55.8298 9.528H54.8298ZM53.7463 13.7394C53.0227 14.9756 52.0468 15.9359 50.8132 16.6279L51.3024 17.5001C52.6928 16.7201 53.7969 15.6324 54.6093 14.2446L53.7463 13.7394ZM50.8132 16.6279C49.5799 17.3198 48.2168 17.668 46.7138 17.668V18.668C48.3788 18.668 49.9117 18.2802 51.3024 17.5001L50.8132 16.6279ZM46.7138 14.924C48.1814 14.924 49.396 14.4286 50.3028 13.413L49.5568 12.747C48.8636 13.5234 47.9342 13.924 46.7138 13.924V14.924ZM50.2995 13.4167C51.2165 12.4097 51.6538 11.0964 51.6538 9.528H50.6538C50.6538 10.9036 50.2751 11.9583 49.5601 12.7433L50.2995 13.4167ZM51.6538 9.528C51.6538 7.94558 51.2175 6.62935 50.2964 5.63603L49.5632 6.31597C50.2741 7.08265 50.6538 8.13442 50.6538 9.528H51.6538ZM50.3028 5.64299C49.396 4.62744 48.1814 4.132 46.7138 4.132V5.132C47.9342 5.132 48.8636 5.53255 49.5568 6.30901L50.3028 5.64299ZM46.7138 4.132C45.2351 4.132 44.0069 4.61591 43.0832 5.61203L43.8164 6.29197C44.5248 5.52809 45.4725 5.132 46.7138 5.132V4.132ZM43.0798 5.61566C42.1757 6.61017 41.7498 7.93376 41.7498 9.528H42.7498C42.7498 8.11424 43.1239 7.05383 43.8198 6.28834L43.0798 5.61566ZM41.7498 9.528C41.7498 11.1083 42.1767 12.4289 43.0768 13.437L43.8228 12.771C43.1229 11.9871 42.7498 10.9237 42.7498 9.528H41.7498ZM43.0832 13.444C44.0069 14.4401 45.2351 14.924 46.7138 14.924V13.924C45.4725 13.924 44.5248 13.5279 43.8164 12.764L43.0832 13.444ZM69.781 9.264L70.2173 9.50831L70.2193 9.50463L69.781 9.264ZM67.717 11.208L67.4813 10.767L67.4813 10.767L67.717 11.208ZM61.717 11.952V11.452H61.217V11.952H61.717ZM61.717 18V18.5H62.217V18H61.717ZM57.613 18H57.113V18.5H57.613V18ZM57.613 1.152V0.651999H57.113V1.152H57.613ZM67.669 1.848L67.8926 1.40079L67.8926 1.40079L67.669 1.848ZM61.717 4.464V3.964H61.217V4.464H61.717ZM61.717 8.688H61.217V9.188H61.717V8.688ZM69.953 6.576C69.953 7.4721 69.7482 8.28473 69.3427 9.02337L70.2193 9.50463C70.7098 8.61127 70.953 7.6319 70.953 6.576H69.953ZM69.3447 9.0197C68.95 9.72455 68.3378 10.3093 67.4813 10.767L67.9527 11.649C68.9522 11.1147 69.716 10.4034 70.2173 9.5083L69.3447 9.0197ZM67.4813 10.767C66.6447 11.2142 65.5792 11.452 64.261 11.452V12.452C65.6948 12.452 66.9333 12.1938 67.9527 11.649L67.4813 10.767ZM64.261 11.452H61.717V12.452H64.261V11.452ZM61.217 11.952V18H62.217V11.952H61.217ZM61.717 17.5H57.613V18.5H61.717V17.5ZM58.113 18V1.152H57.113V18H58.113ZM57.613 1.652H64.261V0.651999H57.613V1.652ZM64.261 1.652C65.5495 1.652 66.6042 1.87463 67.4454 2.29521L67.8926 1.40079C66.8778 0.893369 65.6605 0.651999 64.261 0.651999V1.652ZM67.4454 2.29521C68.2945 2.71976 68.9124 3.29425 69.3224 4.01515L70.1916 3.52085C69.6736 2.60975 68.8995 1.90424 67.8926 1.40079L67.4454 2.29521ZM69.3224 4.01515C69.7384 4.74677 69.953 5.59562 69.953 6.576H70.953C70.953 5.44438 70.7036 4.42122 70.1916 3.52085L69.3224 4.01515ZM63.949 9.188C64.8015 9.188 65.5339 8.98871 66.047 8.49699L65.355 7.77501C65.1001 8.01929 64.6645 8.188 63.949 8.188V9.188ZM66.047 8.49699C66.5538 8.01125 66.777 7.34625 66.777 6.576H65.777C65.777 7.14975 65.6162 7.52474 65.355 7.77501L66.047 8.49699ZM66.777 6.576C66.777 5.80575 66.5538 5.14075 66.047 4.65501L65.355 5.37699C65.6162 5.62725 65.777 6.00225 65.777 6.576H66.777ZM66.047 4.65501C65.5339 4.16329 64.8015 3.964 63.949 3.964V4.964C64.6645 4.964 65.1001 5.13271 65.355 5.37699L66.047 4.65501ZM63.949 3.964H61.717V4.964H63.949V3.964ZM61.217 4.464V8.688H62.217V4.464H61.217ZM61.717 9.188H63.949V8.188H61.717V9.188ZM76.6936 1.152H77.1936V0.651999H76.6936V1.152ZM76.6936 18V18.5H77.1936V18H76.6936ZM72.5896 18H72.0896V18.5H72.5896V18ZM72.5896 1.152V0.651999H72.0896V1.152H72.5896ZM76.1936 1.152V18H77.1936V1.152H76.1936ZM76.6936 17.5H72.5896V18.5H76.6936V17.5ZM73.0896 18V1.152H72.0896V18H73.0896ZM72.5896 1.652H76.6936V0.651999H72.5896V1.652ZM90.1557 15.024L90.6293 14.8636L90.5142 14.524H90.1557V15.024ZM83.8677 15.024V14.524H83.5091L83.3941 14.8636L83.8677 15.024ZM82.8597 18V18.5H83.2182L83.3333 18.1604L82.8597 18ZM78.5637 18L78.0935 17.8299L77.8511 18.5H78.5637V18ZM84.6597 1.152V0.651999H84.3089L84.1895 0.981881L84.6597 1.152ZM89.4117 1.152L89.8819 0.981881L89.7625 0.651999H89.4117V1.152ZM95.5077 18V18.5H96.2203L95.9779 17.8299L95.5077 18ZM91.1637 18L90.6901 18.1604L90.8051 18.5H91.1637V18ZM89.0997 11.856V12.356H89.7968L89.5733 11.6957L89.0997 11.856ZM87.0117 5.688L87.4853 5.52768L87.0089 4.12056L86.5375 5.52933L87.0117 5.688ZM84.9477 11.856L84.4735 11.6973L84.2531 12.356H84.9477V11.856ZM90.1557 14.524H83.8677V15.524H90.1557V14.524ZM83.3941 14.8636L82.3861 17.8396L83.3333 18.1604L84.3413 15.1844L83.3941 14.8636ZM82.8597 17.5H78.5637V18.5H82.8597V17.5ZM79.0339 18.1701L85.1299 1.32212L84.1895 0.981881L78.0935 17.8299L79.0339 18.1701ZM84.6597 1.652H89.4117V0.651999H84.6597V1.652ZM88.9415 1.32212L95.0375 18.1701L95.9779 17.8299L89.8819 0.981881L88.9415 1.32212ZM95.5077 17.5H91.1637V18.5H95.5077V17.5ZM91.6373 17.8396L90.6293 14.8636L89.6821 15.1844L90.6901 18.1604L91.6373 17.8396ZM89.5733 11.6957L87.4853 5.52768L86.5381 5.84832L88.6261 12.0163L89.5733 11.6957ZM86.5375 5.52933L84.4735 11.6973L85.4218 12.0147L87.4858 5.84667L86.5375 5.52933ZM84.9477 12.356H89.0997V11.356H84.9477V12.356Z" fill="#4BCBF5"/>
</svg>
